<svg xmlns="http://www.w3.org/2000/svg" width="1790" height="560" font-family="-apple-system, Helvetica"><defs><linearGradient id="amb" x1="0" y1="0" x2="0" y2="1"><stop offset="0" stop-color="#F9B233"/><stop offset="1" stop-color="#EE8A12"/></linearGradient><linearGradient id="paper" x1="0" y1="0" x2="0" y2="1"><stop offset="0" stop-color="#FFFFFF"/><stop offset="1" stop-color="#F1EEE8"/></linearGradient><linearGradient id="dark" x1="0" y1="0" x2="0" y2="1"><stop offset="0" stop-color="#2B2A2E"/><stop offset="1" stop-color="#1C1B1E"/></linearGradient><linearGradient id="cream" x1="0" y1="0" x2="0" y2="1"><stop offset="0" stop-color="#FFF8EA"/><stop offset="1" stop-color="#F6EAD2"/></linearGradient></defs><defs>
<linearGradient id="resin" x1="0" y1="0" x2="0" y2="1"><stop offset="0" stop-color="#FFB938"/><stop offset=".55" stop-color="#F08E14"/><stop offset="1" stop-color="#C9650A"/></linearGradient>
<linearGradient id="sheet" x1="0" y1="0" x2="0" y2="1"><stop offset="0" stop-color="#FFFDF8"/><stop offset="1" stop-color="#F3EDE2"/></linearGradient>
<linearGradient id="night" x1="0" y1="0" x2="0" y2="1"><stop offset="0" stop-color="#34302C"/><stop offset="1" stop-color="#1E1B19"/></linearGradient>
<filter id="sh" x="-20%" y="-20%" width="140%" height="140%"><feDropShadow dx="0" dy="16" stdDeviation="20" flood-color="#5A2A00" flood-opacity=".32"/></filter>
</defs><defs><clipPath id="c0"><rect width="1024" height="1024" rx="228"/></clipPath><clipPath id="c1"><rect width="1024" height="1024" rx="228"/></clipPath><clipPath id="c2"><rect width="1024" height="1024" rx="228"/></clipPath><clipPath id="c3"><rect width="1024" height="1024" rx="228"/></clipPath><clipPath id="c4"><rect width="1024" height="1024" rx="228"/></clipPath><clipPath id="c5"><rect width="1024" height="1024" rx="228"/></clipPath><clipPath id="c6"><rect width="1024" height="1024" rx="228"/></clipPath></defs><rect width="1790" height="560" fill="#F5F5F7"/><rect y="300" width="1790" height="110" fill="#1C1C1E"/><rect y="410" width="1790" height="110" fill="#8FA7C4"/><g transform="translate(45 30) scale(0.1953)"><g clip-path="url(#c0)"><rect width="1024" height="1024" fill="url(#paper)"/><rect width="1024" height="330" fill="url(#amb)"/><rect y="324" width="1024" height="6" fill="#D9760A" opacity=".35"/><circle cx="34.0" cy="330" r="10" fill="#FFFFFF"/><circle cx="102.4" cy="330" r="10" fill="#FFFFFF"/><circle cx="170.8" cy="330" r="10" fill="#FFFFFF"/><circle cx="239.2" cy="330" r="10" fill="#FFFFFF"/><circle cx="307.6" cy="330" r="10" fill="#FFFFFF"/><circle cx="376.0" cy="330" r="10" fill="#FFFFFF"/><circle cx="444.4" cy="330" r="10" fill="#FFFFFF"/><circle cx="512.8" cy="330" r="10" fill="#FFFFFF"/><circle cx="581.2" cy="330" r="10" fill="#FFFFFF"/><circle cx="649.6" cy="330" r="10" fill="#FFFFFF"/><circle cx="718.0" cy="330" r="10" fill="#FFFFFF"/><circle cx="786.4" cy="330" r="10" fill="#FFFFFF"/><circle cx="854.8" cy="330" r="10" fill="#FFFFFF"/><circle cx="923.2" cy="330" r="10" fill="#FFFFFF"/><circle cx="991.6" cy="330" r="10" fill="#FFFFFF"/><g transform="translate(512 168) rotate(-32) scale(1.5)"><path d="M-70 0 C-40 -46 40 -46 70 0 C40 46 -40 46 -70 0 Z" fill="#7A3B06"/><line x1="-86" y1="0" x2="62" y2="0" stroke="#5A2A03" stroke-width="9" stroke-linecap="round"/></g><line x1="160" y1="540" x2="864" y2="540" stroke="#DCCDB6" stroke-width="13" stroke-linecap="round"/><line x1="160" y1="695" x2="864" y2="695" stroke="#DCCDB6" stroke-width="13" stroke-linecap="round"/><line x1="160" y1="850" x2="864" y2="850" stroke="#DCCDB6" stroke-width="13" stroke-linecap="round"/></g><rect width="1024" height="1024" rx="228" fill="none" stroke="#000" stroke-opacity=".08" stroke-width="4"/></g><text x="145" y="270" font-size="17" font-weight="600" text-anchor="middle" fill="#1D1D1F">Current</text><g transform="translate(70 323) scale(0.0586)"><g clip-path="url(#c0)"><rect width="1024" height="1024" fill="url(#paper)"/><rect width="1024" height="330" fill="url(#amb)"/><rect y="324" width="1024" height="6" fill="#D9760A" opacity=".35"/><circle cx="34.0" cy="330" r="10" fill="#FFFFFF"/><circle cx="102.4" cy="330" r="10" fill="#FFFFFF"/><circle cx="170.8" cy="330" r="10" fill="#FFFFFF"/><circle cx="239.2" cy="330" r="10" fill="#FFFFFF"/><circle cx="307.6" cy="330" r="10" fill="#FFFFFF"/><circle cx="376.0" cy="330" r="10" fill="#FFFFFF"/><circle cx="444.4" cy="330" r="10" fill="#FFFFFF"/><circle cx="512.8" cy="330" r="10" fill="#FFFFFF"/><circle cx="581.2" cy="330" r="10" fill="#FFFFFF"/><circle cx="649.6" cy="330" r="10" fill="#FFFFFF"/><circle cx="718.0" cy="330" r="10" fill="#FFFFFF"/><circle cx="786.4" cy="330" r="10" fill="#FFFFFF"/><circle cx="854.8" cy="330" r="10" fill="#FFFFFF"/><circle cx="923.2" cy="330" r="10" fill="#FFFFFF"/><circle cx="991.6" cy="330" r="10" fill="#FFFFFF"/><g transform="translate(512 168) rotate(-32) scale(1.5)"><path d="M-70 0 C-40 -46 40 -46 70 0 C40 46 -40 46 -70 0 Z" fill="#7A3B06"/><line x1="-86" y1="0" x2="62" y2="0" stroke="#5A2A03" stroke-width="9" stroke-linecap="round"/></g><line x1="160" y1="540" x2="864" y2="540" stroke="#DCCDB6" stroke-width="13" stroke-linecap="round"/><line x1="160" y1="695" x2="864" y2="695" stroke="#DCCDB6" stroke-width="13" stroke-linecap="round"/><line x1="160" y1="850" x2="864" y2="850" stroke="#DCCDB6" stroke-width="13" stroke-linecap="round"/></g><rect width="1024" height="1024" rx="228" fill="none" stroke="#000" stroke-opacity=".08" stroke-width="4"/></g><g transform="translate(160 337) scale(0.03125)"><g clip-path="url(#c0)"><rect width="1024" height="1024" fill="url(#paper)"/><rect width="1024" height="330" fill="url(#amb)"/><rect y="324" width="1024" height="6" fill="#D9760A" opacity=".35"/><circle cx="34.0" cy="330" r="10" fill="#FFFFFF"/><circle cx="102.4" cy="330" r="10" fill="#FFFFFF"/><circle cx="170.8" cy="330" r="10" fill="#FFFFFF"/><circle cx="239.2" cy="330" r="10" fill="#FFFFFF"/><circle cx="307.6" cy="330" r="10" fill="#FFFFFF"/><circle cx="376.0" cy="330" r="10" fill="#FFFFFF"/><circle cx="444.4" cy="330" r="10" fill="#FFFFFF"/><circle cx="512.8" cy="330" r="10" fill="#FFFFFF"/><circle cx="581.2" cy="330" r="10" fill="#FFFFFF"/><circle cx="649.6" cy="330" r="10" fill="#FFFFFF"/><circle cx="718.0" cy="330" r="10" fill="#FFFFFF"/><circle cx="786.4" cy="330" r="10" fill="#FFFFFF"/><circle cx="854.8" cy="330" r="10" fill="#FFFFFF"/><circle cx="923.2" cy="330" r="10" fill="#FFFFFF"/><circle cx="991.6" cy="330" r="10" fill="#FFFFFF"/><g transform="translate(512 168) rotate(-32) scale(1.5)"><path d="M-70 0 C-40 -46 40 -46 70 0 C40 46 -40 46 -70 0 Z" fill="#7A3B06"/><line x1="-86" y1="0" x2="62" y2="0" stroke="#5A2A03" stroke-width="9" stroke-linecap="round"/></g><line x1="160" y1="540" x2="864" y2="540" stroke="#DCCDB6" stroke-width="13" stroke-linecap="round"/><line x1="160" y1="695" x2="864" y2="695" stroke="#DCCDB6" stroke-width="13" stroke-linecap="round"/><line x1="160" y1="850" x2="864" y2="850" stroke="#DCCDB6" stroke-width="13" stroke-linecap="round"/></g><rect width="1024" height="1024" rx="228" fill="none" stroke="#000" stroke-opacity=".08" stroke-width="4"/></g><g transform="translate(70 433) scale(0.0586)"><g clip-path="url(#c0)"><rect width="1024" height="1024" fill="url(#paper)"/><rect width="1024" height="330" fill="url(#amb)"/><rect y="324" width="1024" height="6" fill="#D9760A" opacity=".35"/><circle cx="34.0" cy="330" r="10" fill="#FFFFFF"/><circle cx="102.4" cy="330" r="10" fill="#FFFFFF"/><circle cx="170.8" cy="330" r="10" fill="#FFFFFF"/><circle cx="239.2" cy="330" r="10" fill="#FFFFFF"/><circle cx="307.6" cy="330" r="10" fill="#FFFFFF"/><circle cx="376.0" cy="330" r="10" fill="#FFFFFF"/><circle cx="444.4" cy="330" r="10" fill="#FFFFFF"/><circle cx="512.8" cy="330" r="10" fill="#FFFFFF"/><circle cx="581.2" cy="330" r="10" fill="#FFFFFF"/><circle cx="649.6" cy="330" r="10" fill="#FFFFFF"/><circle cx="718.0" cy="330" r="10" fill="#FFFFFF"/><circle cx="786.4" cy="330" r="10" fill="#FFFFFF"/><circle cx="854.8" cy="330" r="10" fill="#FFFFFF"/><circle cx="923.2" cy="330" r="10" fill="#FFFFFF"/><circle cx="991.6" cy="330" r="10" fill="#FFFFFF"/><g transform="translate(512 168) rotate(-32) scale(1.5)"><path d="M-70 0 C-40 -46 40 -46 70 0 C40 46 -40 46 -70 0 Z" fill="#7A3B06"/><line x1="-86" y1="0" x2="62" y2="0" stroke="#5A2A03" stroke-width="9" stroke-linecap="round"/></g><line x1="160" y1="540" x2="864" y2="540" stroke="#DCCDB6" stroke-width="13" stroke-linecap="round"/><line x1="160" y1="695" x2="864" y2="695" stroke="#DCCDB6" stroke-width="13" stroke-linecap="round"/><line x1="160" y1="850" x2="864" y2="850" stroke="#DCCDB6" stroke-width="13" stroke-linecap="round"/></g><rect width="1024" height="1024" rx="228" fill="none" stroke="#000" stroke-opacity=".08" stroke-width="4"/></g><g transform="translate(160 447) scale(0.03125)"><g clip-path="url(#c0)"><rect width="1024" height="1024" fill="url(#paper)"/><rect width="1024" height="330" fill="url(#amb)"/><rect y="324" width="1024" height="6" fill="#D9760A" opacity=".35"/><circle cx="34.0" cy="330" r="10" fill="#FFFFFF"/><circle cx="102.4" cy="330" r="10" fill="#FFFFFF"/><circle cx="170.8" cy="330" r="10" fill="#FFFFFF"/><circle cx="239.2" cy="330" r="10" fill="#FFFFFF"/><circle cx="307.6" cy="330" r="10" fill="#FFFFFF"/><circle cx="376.0" cy="330" r="10" fill="#FFFFFF"/><circle cx="444.4" cy="330" r="10" fill="#FFFFFF"/><circle cx="512.8" cy="330" r="10" fill="#FFFFFF"/><circle cx="581.2" cy="330" r="10" fill="#FFFFFF"/><circle cx="649.6" cy="330" r="10" fill="#FFFFFF"/><circle cx="718.0" cy="330" r="10" fill="#FFFFFF"/><circle cx="786.4" cy="330" r="10" fill="#FFFFFF"/><circle cx="854.8" cy="330" r="10" fill="#FFFFFF"/><circle cx="923.2" cy="330" r="10" fill="#FFFFFF"/><circle cx="991.6" cy="330" r="10" fill="#FFFFFF"/><g transform="translate(512 168) rotate(-32) scale(1.5)"><path d="M-70 0 C-40 -46 40 -46 70 0 C40 46 -40 46 -70 0 Z" fill="#7A3B06"/><line x1="-86" y1="0" x2="62" y2="0" stroke="#5A2A03" stroke-width="9" stroke-linecap="round"/></g><line x1="160" y1="540" x2="864" y2="540" stroke="#DCCDB6" stroke-width="13" stroke-linecap="round"/><line x1="160" y1="695" x2="864" y2="695" stroke="#DCCDB6" stroke-width="13" stroke-linecap="round"/><line x1="160" y1="850" x2="864" y2="850" stroke="#DCCDB6" stroke-width="13" stroke-linecap="round"/></g><rect width="1024" height="1024" rx="228" fill="none" stroke="#000" stroke-opacity=".08" stroke-width="4"/></g><g transform="translate(295 30) scale(0.1953)"><g clip-path="url(#c1)"><rect width="1024" height="1024" fill="url(#resin)"/><g transform="rotate(-6 512 530)" filter="url(#sh)"><rect x="232" y="196" width="560" height="660" rx="56" fill="url(#sheet)"/><line x1="312" y1="470" x2="712" y2="470" stroke="#E3D3B5" stroke-width="16" stroke-linecap="round"/><line x1="312" y1="580" x2="712" y2="580" stroke="#E3D3B5" stroke-width="16" stroke-linecap="round"/><line x1="312" y1="690" x2="712" y2="690" stroke="#E3D3B5" stroke-width="16" stroke-linecap="round"/><g transform="translate(640 318) rotate(-32) scale(0.95)"><path d="M-70 0 C-40 -46 40 -46 70 0 C40 46 -40 46 -70 0 Z" fill="#7A3B06"/><line x1="-86" y1="0" x2="62" y2="0" stroke="#5A2A03" stroke-width="9" stroke-linecap="round"/></g></g></g><rect width="1024" height="1024" rx="228" fill="none" stroke="#000" stroke-opacity=".08" stroke-width="4"/></g><text x="395" y="270" font-size="17" font-weight="600" text-anchor="middle" fill="#1D1D1F">S1 Page on amber</text><g transform="translate(320 323) scale(0.0586)"><g clip-path="url(#c1)"><rect width="1024" height="1024" fill="url(#resin)"/><g transform="rotate(-6 512 530)" filter="url(#sh)"><rect x="232" y="196" width="560" height="660" rx="56" fill="url(#sheet)"/><line x1="312" y1="470" x2="712" y2="470" stroke="#E3D3B5" stroke-width="16" stroke-linecap="round"/><line x1="312" y1="580" x2="712" y2="580" stroke="#E3D3B5" stroke-width="16" stroke-linecap="round"/><line x1="312" y1="690" x2="712" y2="690" stroke="#E3D3B5" stroke-width="16" stroke-linecap="round"/><g transform="translate(640 318) rotate(-32) scale(0.95)"><path d="M-70 0 C-40 -46 40 -46 70 0 C40 46 -40 46 -70 0 Z" fill="#7A3B06"/><line x1="-86" y1="0" x2="62" y2="0" stroke="#5A2A03" stroke-width="9" stroke-linecap="round"/></g></g></g><rect width="1024" height="1024" rx="228" fill="none" stroke="#000" stroke-opacity=".08" stroke-width="4"/></g><g transform="translate(410 337) scale(0.03125)"><g clip-path="url(#c1)"><rect width="1024" height="1024" fill="url(#resin)"/><g transform="rotate(-6 512 530)" filter="url(#sh)"><rect x="232" y="196" width="560" height="660" rx="56" fill="url(#sheet)"/><line x1="312" y1="470" x2="712" y2="470" stroke="#E3D3B5" stroke-width="16" stroke-linecap="round"/><line x1="312" y1="580" x2="712" y2="580" stroke="#E3D3B5" stroke-width="16" stroke-linecap="round"/><line x1="312" y1="690" x2="712" y2="690" stroke="#E3D3B5" stroke-width="16" stroke-linecap="round"/><g transform="translate(640 318) rotate(-32) scale(0.95)"><path d="M-70 0 C-40 -46 40 -46 70 0 C40 46 -40 46 -70 0 Z" fill="#7A3B06"/><line x1="-86" y1="0" x2="62" y2="0" stroke="#5A2A03" stroke-width="9" stroke-linecap="round"/></g></g></g><rect width="1024" height="1024" rx="228" fill="none" stroke="#000" stroke-opacity=".08" stroke-width="4"/></g><g transform="translate(320 433) scale(0.0586)"><g clip-path="url(#c1)"><rect width="1024" height="1024" fill="url(#resin)"/><g transform="rotate(-6 512 530)" filter="url(#sh)"><rect x="232" y="196" width="560" height="660" rx="56" fill="url(#sheet)"/><line x1="312" y1="470" x2="712" y2="470" stroke="#E3D3B5" stroke-width="16" stroke-linecap="round"/><line x1="312" y1="580" x2="712" y2="580" stroke="#E3D3B5" stroke-width="16" stroke-linecap="round"/><line x1="312" y1="690" x2="712" y2="690" stroke="#E3D3B5" stroke-width="16" stroke-linecap="round"/><g transform="translate(640 318) rotate(-32) scale(0.95)"><path d="M-70 0 C-40 -46 40 -46 70 0 C40 46 -40 46 -70 0 Z" fill="#7A3B06"/><line x1="-86" y1="0" x2="62" y2="0" stroke="#5A2A03" stroke-width="9" stroke-linecap="round"/></g></g></g><rect width="1024" height="1024" rx="228" fill="none" stroke="#000" stroke-opacity=".08" stroke-width="4"/></g><g transform="translate(410 447) scale(0.03125)"><g clip-path="url(#c1)"><rect width="1024" height="1024" fill="url(#resin)"/><g transform="rotate(-6 512 530)" filter="url(#sh)"><rect x="232" y="196" width="560" height="660" rx="56" fill="url(#sheet)"/><line x1="312" y1="470" x2="712" y2="470" stroke="#E3D3B5" stroke-width="16" stroke-linecap="round"/><line x1="312" y1="580" x2="712" y2="580" stroke="#E3D3B5" stroke-width="16" stroke-linecap="round"/><line x1="312" y1="690" x2="712" y2="690" stroke="#E3D3B5" stroke-width="16" stroke-linecap="round"/><g transform="translate(640 318) rotate(-32) scale(0.95)"><path d="M-70 0 C-40 -46 40 -46 70 0 C40 46 -40 46 -70 0 Z" fill="#7A3B06"/><line x1="-86" y1="0" x2="62" y2="0" stroke="#5A2A03" stroke-width="9" stroke-linecap="round"/></g></g></g><rect width="1024" height="1024" rx="228" fill="none" stroke="#000" stroke-opacity=".08" stroke-width="4"/></g><g transform="translate(545 30) scale(0.1953)"><g clip-path="url(#c2)"><rect width="1024" height="1024" fill="url(#resin)"/><g transform="translate(512 330) rotate(-32) scale(2.1)"><path d="M-70 0 C-40 -46 40 -46 70 0 C40 46 -40 46 -70 0 Z" fill="#FFF3DC"/><line x1="-86" y1="0" x2="62" y2="0" stroke="#E08A14" stroke-width="9" stroke-linecap="round"/></g><line x1="262" y1="620" x2="762" y2="620" stroke="#FFF3DC" stroke-width="30" stroke-linecap="round"/><line x1="262" y1="730" x2="762" y2="730" stroke="#FFF3DC" stroke-width="30" stroke-linecap="round"/><line x1="262" y1="840" x2="582" y2="840" stroke="#FFF3DC" stroke-width="30" stroke-linecap="round"/></g><rect width="1024" height="1024" rx="228" fill="none" stroke="#000" stroke-opacity=".08" stroke-width="4"/></g><text x="645" y="270" font-size="17" font-weight="600" text-anchor="middle" fill="#1D1D1F">S2 Leaf and lines</text><g transform="translate(570 323) scale(0.0586)"><g clip-path="url(#c2)"><rect width="1024" height="1024" fill="url(#resin)"/><g transform="translate(512 330) rotate(-32) scale(2.1)"><path d="M-70 0 C-40 -46 40 -46 70 0 C40 46 -40 46 -70 0 Z" fill="#FFF3DC"/><line x1="-86" y1="0" x2="62" y2="0" stroke="#E08A14" stroke-width="9" stroke-linecap="round"/></g><line x1="262" y1="620" x2="762" y2="620" stroke="#FFF3DC" stroke-width="30" stroke-linecap="round"/><line x1="262" y1="730" x2="762" y2="730" stroke="#FFF3DC" stroke-width="30" stroke-linecap="round"/><line x1="262" y1="840" x2="582" y2="840" stroke="#FFF3DC" stroke-width="30" stroke-linecap="round"/></g><rect width="1024" height="1024" rx="228" fill="none" stroke="#000" stroke-opacity=".08" stroke-width="4"/></g><g transform="translate(660 337) scale(0.03125)"><g clip-path="url(#c2)"><rect width="1024" height="1024" fill="url(#resin)"/><g transform="translate(512 330) rotate(-32) scale(2.1)"><path d="M-70 0 C-40 -46 40 -46 70 0 C40 46 -40 46 -70 0 Z" fill="#FFF3DC"/><line x1="-86" y1="0" x2="62" y2="0" stroke="#E08A14" stroke-width="9" stroke-linecap="round"/></g><line x1="262" y1="620" x2="762" y2="620" stroke="#FFF3DC" stroke-width="30" stroke-linecap="round"/><line x1="262" y1="730" x2="762" y2="730" stroke="#FFF3DC" stroke-width="30" stroke-linecap="round"/><line x1="262" y1="840" x2="582" y2="840" stroke="#FFF3DC" stroke-width="30" stroke-linecap="round"/></g><rect width="1024" height="1024" rx="228" fill="none" stroke="#000" stroke-opacity=".08" stroke-width="4"/></g><g transform="translate(570 433) scale(0.0586)"><g clip-path="url(#c2)"><rect width="1024" height="1024" fill="url(#resin)"/><g transform="translate(512 330) rotate(-32) scale(2.1)"><path d="M-70 0 C-40 -46 40 -46 70 0 C40 46 -40 46 -70 0 Z" fill="#FFF3DC"/><line x1="-86" y1="0" x2="62" y2="0" stroke="#E08A14" stroke-width="9" stroke-linecap="round"/></g><line x1="262" y1="620" x2="762" y2="620" stroke="#FFF3DC" stroke-width="30" stroke-linecap="round"/><line x1="262" y1="730" x2="762" y2="730" stroke="#FFF3DC" stroke-width="30" stroke-linecap="round"/><line x1="262" y1="840" x2="582" y2="840" stroke="#FFF3DC" stroke-width="30" stroke-linecap="round"/></g><rect width="1024" height="1024" rx="228" fill="none" stroke="#000" stroke-opacity=".08" stroke-width="4"/></g><g transform="translate(660 447) scale(0.03125)"><g clip-path="url(#c2)"><rect width="1024" height="1024" fill="url(#resin)"/><g transform="translate(512 330) rotate(-32) scale(2.1)"><path d="M-70 0 C-40 -46 40 -46 70 0 C40 46 -40 46 -70 0 Z" fill="#FFF3DC"/><line x1="-86" y1="0" x2="62" y2="0" stroke="#E08A14" stroke-width="9" stroke-linecap="round"/></g><line x1="262" y1="620" x2="762" y2="620" stroke="#FFF3DC" stroke-width="30" stroke-linecap="round"/><line x1="262" y1="730" x2="762" y2="730" stroke="#FFF3DC" stroke-width="30" stroke-linecap="round"/><line x1="262" y1="840" x2="582" y2="840" stroke="#FFF3DC" stroke-width="30" stroke-linecap="round"/></g><rect width="1024" height="1024" rx="228" fill="none" stroke="#000" stroke-opacity=".08" stroke-width="4"/></g><g transform="translate(795 30) scale(0.1953)"><g clip-path="url(#c3)"><rect width="1024" height="1024" fill="url(#night)"/><rect x="222" y="232" width="580" height="600" rx="60" fill="url(#resin)"/><rect x="222" y="232" width="120" height="600" rx="60" fill="#C9650A"/><rect x="282" y="232" width="60" height="600" fill="#C9650A"/><line x1="400" y1="420" x2="720" y2="420" stroke="#FFE7BF" stroke-width="18" stroke-linecap="round"/><line x1="400" y1="530" x2="720" y2="530" stroke="#FFE7BF" stroke-width="18" stroke-linecap="round"/><line x1="400" y1="640" x2="720" y2="640" stroke="#FFE7BF" stroke-width="18" stroke-linecap="round"/><g transform="translate(560 760) rotate(-32) scale(0.8)"><path d="M-70 0 C-40 -46 40 -46 70 0 C40 46 -40 46 -70 0 Z" fill="#FFF3DC"/><line x1="-86" y1="0" x2="62" y2="0" stroke="#E08A14" stroke-width="9" stroke-linecap="round"/></g></g><rect width="1024" height="1024" rx="228" fill="none" stroke="#000" stroke-opacity=".08" stroke-width="4"/></g><text x="895" y="270" font-size="17" font-weight="600" text-anchor="middle" fill="#1D1D1F">S3 Night notebook</text><g transform="translate(820 323) scale(0.0586)"><g clip-path="url(#c3)"><rect width="1024" height="1024" fill="url(#night)"/><rect x="222" y="232" width="580" height="600" rx="60" fill="url(#resin)"/><rect x="222" y="232" width="120" height="600" rx="60" fill="#C9650A"/><rect x="282" y="232" width="60" height="600" fill="#C9650A"/><line x1="400" y1="420" x2="720" y2="420" stroke="#FFE7BF" stroke-width="18" stroke-linecap="round"/><line x1="400" y1="530" x2="720" y2="530" stroke="#FFE7BF" stroke-width="18" stroke-linecap="round"/><line x1="400" y1="640" x2="720" y2="640" stroke="#FFE7BF" stroke-width="18" stroke-linecap="round"/><g transform="translate(560 760) rotate(-32) scale(0.8)"><path d="M-70 0 C-40 -46 40 -46 70 0 C40 46 -40 46 -70 0 Z" fill="#FFF3DC"/><line x1="-86" y1="0" x2="62" y2="0" stroke="#E08A14" stroke-width="9" stroke-linecap="round"/></g></g><rect width="1024" height="1024" rx="228" fill="none" stroke="#000" stroke-opacity=".08" stroke-width="4"/></g><g transform="translate(910 337) scale(0.03125)"><g clip-path="url(#c3)"><rect width="1024" height="1024" fill="url(#night)"/><rect x="222" y="232" width="580" height="600" rx="60" fill="url(#resin)"/><rect x="222" y="232" width="120" height="600" rx="60" fill="#C9650A"/><rect x="282" y="232" width="60" height="600" fill="#C9650A"/><line x1="400" y1="420" x2="720" y2="420" stroke="#FFE7BF" stroke-width="18" stroke-linecap="round"/><line x1="400" y1="530" x2="720" y2="530" stroke="#FFE7BF" stroke-width="18" stroke-linecap="round"/><line x1="400" y1="640" x2="720" y2="640" stroke="#FFE7BF" stroke-width="18" stroke-linecap="round"/><g transform="translate(560 760) rotate(-32) scale(0.8)"><path d="M-70 0 C-40 -46 40 -46 70 0 C40 46 -40 46 -70 0 Z" fill="#FFF3DC"/><line x1="-86" y1="0" x2="62" y2="0" stroke="#E08A14" stroke-width="9" stroke-linecap="round"/></g></g><rect width="1024" height="1024" rx="228" fill="none" stroke="#000" stroke-opacity=".08" stroke-width="4"/></g><g transform="translate(820 433) scale(0.0586)"><g clip-path="url(#c3)"><rect width="1024" height="1024" fill="url(#night)"/><rect x="222" y="232" width="580" height="600" rx="60" fill="url(#resin)"/><rect x="222" y="232" width="120" height="600" rx="60" fill="#C9650A"/><rect x="282" y="232" width="60" height="600" fill="#C9650A"/><line x1="400" y1="420" x2="720" y2="420" stroke="#FFE7BF" stroke-width="18" stroke-linecap="round"/><line x1="400" y1="530" x2="720" y2="530" stroke="#FFE7BF" stroke-width="18" stroke-linecap="round"/><line x1="400" y1="640" x2="720" y2="640" stroke="#FFE7BF" stroke-width="18" stroke-linecap="round"/><g transform="translate(560 760) rotate(-32) scale(0.8)"><path d="M-70 0 C-40 -46 40 -46 70 0 C40 46 -40 46 -70 0 Z" fill="#FFF3DC"/><line x1="-86" y1="0" x2="62" y2="0" stroke="#E08A14" stroke-width="9" stroke-linecap="round"/></g></g><rect width="1024" height="1024" rx="228" fill="none" stroke="#000" stroke-opacity=".08" stroke-width="4"/></g><g transform="translate(910 447) scale(0.03125)"><g clip-path="url(#c3)"><rect width="1024" height="1024" fill="url(#night)"/><rect x="222" y="232" width="580" height="600" rx="60" fill="url(#resin)"/><rect x="222" y="232" width="120" height="600" rx="60" fill="#C9650A"/><rect x="282" y="232" width="60" height="600" fill="#C9650A"/><line x1="400" y1="420" x2="720" y2="420" stroke="#FFE7BF" stroke-width="18" stroke-linecap="round"/><line x1="400" y1="530" x2="720" y2="530" stroke="#FFE7BF" stroke-width="18" stroke-linecap="round"/><line x1="400" y1="640" x2="720" y2="640" stroke="#FFE7BF" stroke-width="18" stroke-linecap="round"/><g transform="translate(560 760) rotate(-32) scale(0.8)"><path d="M-70 0 C-40 -46 40 -46 70 0 C40 46 -40 46 -70 0 Z" fill="#FFF3DC"/><line x1="-86" y1="0" x2="62" y2="0" stroke="#E08A14" stroke-width="9" stroke-linecap="round"/></g></g><rect width="1024" height="1024" rx="228" fill="none" stroke="#000" stroke-opacity=".08" stroke-width="4"/></g><g transform="translate(1045 30) scale(0.1953)"><g clip-path="url(#c4)"><rect width="1024" height="1024" fill="url(#cream)"/><path d="M640 0 H800 V420 L720 360 L640 420 Z" fill="url(#resin)"/><g transform="translate(720 250) rotate(-32) scale(0.85)"><path d="M-70 0 C-40 -46 40 -46 70 0 C40 46 -40 46 -70 0 Z" fill="#7A3B06"/><line x1="-86" y1="0" x2="62" y2="0" stroke="#5A2A03" stroke-width="9" stroke-linecap="round"/></g><line x1="200" y1="300" x2="580" y2="300" stroke="#E3D3B5" stroke-width="16" stroke-linecap="round"/><line x1="200" y1="420" x2="580" y2="420" stroke="#E3D3B5" stroke-width="16" stroke-linecap="round"/><line x1="200" y1="540" x2="824" y2="540" stroke="#E3D3B5" stroke-width="16" stroke-linecap="round"/><line x1="200" y1="660" x2="824" y2="660" stroke="#E3D3B5" stroke-width="16" stroke-linecap="round"/><line x1="200" y1="780" x2="824" y2="780" stroke="#E3D3B5" stroke-width="16" stroke-linecap="round"/></g><rect width="1024" height="1024" rx="228" fill="none" stroke="#000" stroke-opacity=".08" stroke-width="4"/></g><text x="1145" y="270" font-size="17" font-weight="600" text-anchor="middle" fill="#1D1D1F">S4 Leaf bookmark</text><g transform="translate(1070 323) scale(0.0586)"><g clip-path="url(#c4)"><rect width="1024" height="1024" fill="url(#cream)"/><path d="M640 0 H800 V420 L720 360 L640 420 Z" fill="url(#resin)"/><g transform="translate(720 250) rotate(-32) scale(0.85)"><path d="M-70 0 C-40 -46 40 -46 70 0 C40 46 -40 46 -70 0 Z" fill="#7A3B06"/><line x1="-86" y1="0" x2="62" y2="0" stroke="#5A2A03" stroke-width="9" stroke-linecap="round"/></g><line x1="200" y1="300" x2="580" y2="300" stroke="#E3D3B5" stroke-width="16" stroke-linecap="round"/><line x1="200" y1="420" x2="580" y2="420" stroke="#E3D3B5" stroke-width="16" stroke-linecap="round"/><line x1="200" y1="540" x2="824" y2="540" stroke="#E3D3B5" stroke-width="16" stroke-linecap="round"/><line x1="200" y1="660" x2="824" y2="660" stroke="#E3D3B5" stroke-width="16" stroke-linecap="round"/><line x1="200" y1="780" x2="824" y2="780" stroke="#E3D3B5" stroke-width="16" stroke-linecap="round"/></g><rect width="1024" height="1024" rx="228" fill="none" stroke="#000" stroke-opacity=".08" stroke-width="4"/></g><g transform="translate(1160 337) scale(0.03125)"><g clip-path="url(#c4)"><rect width="1024" height="1024" fill="url(#cream)"/><path d="M640 0 H800 V420 L720 360 L640 420 Z" fill="url(#resin)"/><g transform="translate(720 250) rotate(-32) scale(0.85)"><path d="M-70 0 C-40 -46 40 -46 70 0 C40 46 -40 46 -70 0 Z" fill="#7A3B06"/><line x1="-86" y1="0" x2="62" y2="0" stroke="#5A2A03" stroke-width="9" stroke-linecap="round"/></g><line x1="200" y1="300" x2="580" y2="300" stroke="#E3D3B5" stroke-width="16" stroke-linecap="round"/><line x1="200" y1="420" x2="580" y2="420" stroke="#E3D3B5" stroke-width="16" stroke-linecap="round"/><line x1="200" y1="540" x2="824" y2="540" stroke="#E3D3B5" stroke-width="16" stroke-linecap="round"/><line x1="200" y1="660" x2="824" y2="660" stroke="#E3D3B5" stroke-width="16" stroke-linecap="round"/><line x1="200" y1="780" x2="824" y2="780" stroke="#E3D3B5" stroke-width="16" stroke-linecap="round"/></g><rect width="1024" height="1024" rx="228" fill="none" stroke="#000" stroke-opacity=".08" stroke-width="4"/></g><g transform="translate(1070 433) scale(0.0586)"><g clip-path="url(#c4)"><rect width="1024" height="1024" fill="url(#cream)"/><path d="M640 0 H800 V420 L720 360 L640 420 Z" fill="url(#resin)"/><g transform="translate(720 250) rotate(-32) scale(0.85)"><path d="M-70 0 C-40 -46 40 -46 70 0 C40 46 -40 46 -70 0 Z" fill="#7A3B06"/><line x1="-86" y1="0" x2="62" y2="0" stroke="#5A2A03" stroke-width="9" stroke-linecap="round"/></g><line x1="200" y1="300" x2="580" y2="300" stroke="#E3D3B5" stroke-width="16" stroke-linecap="round"/><line x1="200" y1="420" x2="580" y2="420" stroke="#E3D3B5" stroke-width="16" stroke-linecap="round"/><line x1="200" y1="540" x2="824" y2="540" stroke="#E3D3B5" stroke-width="16" stroke-linecap="round"/><line x1="200" y1="660" x2="824" y2="660" stroke="#E3D3B5" stroke-width="16" stroke-linecap="round"/><line x1="200" y1="780" x2="824" y2="780" stroke="#E3D3B5" stroke-width="16" stroke-linecap="round"/></g><rect width="1024" height="1024" rx="228" fill="none" stroke="#000" stroke-opacity=".08" stroke-width="4"/></g><g transform="translate(1160 447) scale(0.03125)"><g clip-path="url(#c4)"><rect width="1024" height="1024" fill="url(#cream)"/><path d="M640 0 H800 V420 L720 360 L640 420 Z" fill="url(#resin)"/><g transform="translate(720 250) rotate(-32) scale(0.85)"><path d="M-70 0 C-40 -46 40 -46 70 0 C40 46 -40 46 -70 0 Z" fill="#7A3B06"/><line x1="-86" y1="0" x2="62" y2="0" stroke="#5A2A03" stroke-width="9" stroke-linecap="round"/></g><line x1="200" y1="300" x2="580" y2="300" stroke="#E3D3B5" stroke-width="16" stroke-linecap="round"/><line x1="200" y1="420" x2="580" y2="420" stroke="#E3D3B5" stroke-width="16" stroke-linecap="round"/><line x1="200" y1="540" x2="824" y2="540" stroke="#E3D3B5" stroke-width="16" stroke-linecap="round"/><line x1="200" y1="660" x2="824" y2="660" stroke="#E3D3B5" stroke-width="16" stroke-linecap="round"/><line x1="200" y1="780" x2="824" y2="780" stroke="#E3D3B5" stroke-width="16" stroke-linecap="round"/></g><rect width="1024" height="1024" rx="228" fill="none" stroke="#000" stroke-opacity=".08" stroke-width="4"/></g><g transform="translate(1295 30) scale(0.1953)"><g clip-path="url(#c5)"><rect width="1024" height="1024" fill="url(#cream)"/><path d="M512 120 C 660 300 800 430 800 610 A 288 288 0 0 1 224 610 C 224 430 364 300 512 120 Z" fill="url(#resin)" filter="url(#sh)"/><rect x="382" y="470" width="260" height="320" rx="34" fill="url(#sheet)"/><line x1="430" y1="560" x2="594" y2="560" stroke="#E3D3B5" stroke-width="14" stroke-linecap="round"/><line x1="430" y1="630" x2="594" y2="630" stroke="#E3D3B5" stroke-width="14" stroke-linecap="round"/><line x1="430" y1="700" x2="594" y2="700" stroke="#E3D3B5" stroke-width="14" stroke-linecap="round"/><path d="M392 300 C 404 262 430 230 460 206" stroke="#FFE3A6" stroke-width="26" stroke-linecap="round" fill="none"/></g><rect width="1024" height="1024" rx="228" fill="none" stroke="#000" stroke-opacity=".08" stroke-width="4"/></g><text x="1395" y="270" font-size="17" font-weight="600" text-anchor="middle" fill="#1D1D1F">S5 Page in amber drop</text><g transform="translate(1320 323) scale(0.0586)"><g clip-path="url(#c5)"><rect width="1024" height="1024" fill="url(#cream)"/><path d="M512 120 C 660 300 800 430 800 610 A 288 288 0 0 1 224 610 C 224 430 364 300 512 120 Z" fill="url(#resin)" filter="url(#sh)"/><rect x="382" y="470" width="260" height="320" rx="34" fill="url(#sheet)"/><line x1="430" y1="560" x2="594" y2="560" stroke="#E3D3B5" stroke-width="14" stroke-linecap="round"/><line x1="430" y1="630" x2="594" y2="630" stroke="#E3D3B5" stroke-width="14" stroke-linecap="round"/><line x1="430" y1="700" x2="594" y2="700" stroke="#E3D3B5" stroke-width="14" stroke-linecap="round"/><path d="M392 300 C 404 262 430 230 460 206" stroke="#FFE3A6" stroke-width="26" stroke-linecap="round" fill="none"/></g><rect width="1024" height="1024" rx="228" fill="none" stroke="#000" stroke-opacity=".08" stroke-width="4"/></g><g transform="translate(1410 337) scale(0.03125)"><g clip-path="url(#c5)"><rect width="1024" height="1024" fill="url(#cream)"/><path d="M512 120 C 660 300 800 430 800 610 A 288 288 0 0 1 224 610 C 224 430 364 300 512 120 Z" fill="url(#resin)" filter="url(#sh)"/><rect x="382" y="470" width="260" height="320" rx="34" fill="url(#sheet)"/><line x1="430" y1="560" x2="594" y2="560" stroke="#E3D3B5" stroke-width="14" stroke-linecap="round"/><line x1="430" y1="630" x2="594" y2="630" stroke="#E3D3B5" stroke-width="14" stroke-linecap="round"/><line x1="430" y1="700" x2="594" y2="700" stroke="#E3D3B5" stroke-width="14" stroke-linecap="round"/><path d="M392 300 C 404 262 430 230 460 206" stroke="#FFE3A6" stroke-width="26" stroke-linecap="round" fill="none"/></g><rect width="1024" height="1024" rx="228" fill="none" stroke="#000" stroke-opacity=".08" stroke-width="4"/></g><g transform="translate(1320 433) scale(0.0586)"><g clip-path="url(#c5)"><rect width="1024" height="1024" fill="url(#cream)"/><path d="M512 120 C 660 300 800 430 800 610 A 288 288 0 0 1 224 610 C 224 430 364 300 512 120 Z" fill="url(#resin)" filter="url(#sh)"/><rect x="382" y="470" width="260" height="320" rx="34" fill="url(#sheet)"/><line x1="430" y1="560" x2="594" y2="560" stroke="#E3D3B5" stroke-width="14" stroke-linecap="round"/><line x1="430" y1="630" x2="594" y2="630" stroke="#E3D3B5" stroke-width="14" stroke-linecap="round"/><line x1="430" y1="700" x2="594" y2="700" stroke="#E3D3B5" stroke-width="14" stroke-linecap="round"/><path d="M392 300 C 404 262 430 230 460 206" stroke="#FFE3A6" stroke-width="26" stroke-linecap="round" fill="none"/></g><rect width="1024" height="1024" rx="228" fill="none" stroke="#000" stroke-opacity=".08" stroke-width="4"/></g><g transform="translate(1410 447) scale(0.03125)"><g clip-path="url(#c5)"><rect width="1024" height="1024" fill="url(#cream)"/><path d="M512 120 C 660 300 800 430 800 610 A 288 288 0 0 1 224 610 C 224 430 364 300 512 120 Z" fill="url(#resin)" filter="url(#sh)"/><rect x="382" y="470" width="260" height="320" rx="34" fill="url(#sheet)"/><line x1="430" y1="560" x2="594" y2="560" stroke="#E3D3B5" stroke-width="14" stroke-linecap="round"/><line x1="430" y1="630" x2="594" y2="630" stroke="#E3D3B5" stroke-width="14" stroke-linecap="round"/><line x1="430" y1="700" x2="594" y2="700" stroke="#E3D3B5" stroke-width="14" stroke-linecap="round"/><path d="M392 300 C 404 262 430 230 460 206" stroke="#FFE3A6" stroke-width="26" stroke-linecap="round" fill="none"/></g><rect width="1024" height="1024" rx="228" fill="none" stroke="#000" stroke-opacity=".08" stroke-width="4"/></g><g transform="translate(1545 30) scale(0.1953)"><g clip-path="url(#c6)"><rect width="1024" height="1024" fill="url(#cream)"/><path d="M0 0 H1024 V300 C 860 380 700 280 512 330 C 330 380 170 300 0 350 Z" fill="url(#resin)"/><g transform="translate(512 170) rotate(-32) scale(1.4)"><path d="M-70 0 C-40 -46 40 -46 70 0 C40 46 -40 46 -70 0 Z" fill="#7A3B06"/><line x1="-86" y1="0" x2="62" y2="0" stroke="#5A2A03" stroke-width="9" stroke-linecap="round"/></g><line x1="170" y1="560" x2="854" y2="560" stroke="#E3D3B5" stroke-width="14" stroke-linecap="round"/><line x1="170" y1="700" x2="854" y2="700" stroke="#E3D3B5" stroke-width="14" stroke-linecap="round"/><line x1="170" y1="840" x2="854" y2="840" stroke="#E3D3B5" stroke-width="14" stroke-linecap="round"/></g><rect width="1024" height="1024" rx="228" fill="none" stroke="#000" stroke-opacity=".08" stroke-width="4"/></g><text x="1645" y="270" font-size="17" font-weight="600" text-anchor="middle" fill="#1D1D1F">S6 Poured header</text><g transform="translate(1570 323) scale(0.0586)"><g clip-path="url(#c6)"><rect width="1024" height="1024" fill="url(#cream)"/><path d="M0 0 H1024 V300 C 860 380 700 280 512 330 C 330 380 170 300 0 350 Z" fill="url(#resin)"/><g transform="translate(512 170) rotate(-32) scale(1.4)"><path d="M-70 0 C-40 -46 40 -46 70 0 C40 46 -40 46 -70 0 Z" fill="#7A3B06"/><line x1="-86" y1="0" x2="62" y2="0" stroke="#5A2A03" stroke-width="9" stroke-linecap="round"/></g><line x1="170" y1="560" x2="854" y2="560" stroke="#E3D3B5" stroke-width="14" stroke-linecap="round"/><line x1="170" y1="700" x2="854" y2="700" stroke="#E3D3B5" stroke-width="14" stroke-linecap="round"/><line x1="170" y1="840" x2="854" y2="840" stroke="#E3D3B5" stroke-width="14" stroke-linecap="round"/></g><rect width="1024" height="1024" rx="228" fill="none" stroke="#000" stroke-opacity=".08" stroke-width="4"/></g><g transform="translate(1660 337) scale(0.03125)"><g clip-path="url(#c6)"><rect width="1024" height="1024" fill="url(#cream)"/><path d="M0 0 H1024 V300 C 860 380 700 280 512 330 C 330 380 170 300 0 350 Z" fill="url(#resin)"/><g transform="translate(512 170) rotate(-32) scale(1.4)"><path d="M-70 0 C-40 -46 40 -46 70 0 C40 46 -40 46 -70 0 Z" fill="#7A3B06"/><line x1="-86" y1="0" x2="62" y2="0" stroke="#5A2A03" stroke-width="9" stroke-linecap="round"/></g><line x1="170" y1="560" x2="854" y2="560" stroke="#E3D3B5" stroke-width="14" stroke-linecap="round"/><line x1="170" y1="700" x2="854" y2="700" stroke="#E3D3B5" stroke-width="14" stroke-linecap="round"/><line x1="170" y1="840" x2="854" y2="840" stroke="#E3D3B5" stroke-width="14" stroke-linecap="round"/></g><rect width="1024" height="1024" rx="228" fill="none" stroke="#000" stroke-opacity=".08" stroke-width="4"/></g><g transform="translate(1570 433) scale(0.0586)"><g clip-path="url(#c6)"><rect width="1024" height="1024" fill="url(#cream)"/><path d="M0 0 H1024 V300 C 860 380 700 280 512 330 C 330 380 170 300 0 350 Z" fill="url(#resin)"/><g transform="translate(512 170) rotate(-32) scale(1.4)"><path d="M-70 0 C-40 -46 40 -46 70 0 C40 46 -40 46 -70 0 Z" fill="#7A3B06"/><line x1="-86" y1="0" x2="62" y2="0" stroke="#5A2A03" stroke-width="9" stroke-linecap="round"/></g><line x1="170" y1="560" x2="854" y2="560" stroke="#E3D3B5" stroke-width="14" stroke-linecap="round"/><line x1="170" y1="700" x2="854" y2="700" stroke="#E3D3B5" stroke-width="14" stroke-linecap="round"/><line x1="170" y1="840" x2="854" y2="840" stroke="#E3D3B5" stroke-width="14" stroke-linecap="round"/></g><rect width="1024" height="1024" rx="228" fill="none" stroke="#000" stroke-opacity=".08" stroke-width="4"/></g><g transform="translate(1660 447) scale(0.03125)"><g clip-path="url(#c6)"><rect width="1024" height="1024" fill="url(#cream)"/><path d="M0 0 H1024 V300 C 860 380 700 280 512 330 C 330 380 170 300 0 350 Z" fill="url(#resin)"/><g transform="translate(512 170) rotate(-32) scale(1.4)"><path d="M-70 0 C-40 -46 40 -46 70 0 C40 46 -40 46 -70 0 Z" fill="#7A3B06"/><line x1="-86" y1="0" x2="62" y2="0" stroke="#5A2A03" stroke-width="9" stroke-linecap="round"/></g><line x1="170" y1="560" x2="854" y2="560" stroke="#E3D3B5" stroke-width="14" stroke-linecap="round"/><line x1="170" y1="700" x2="854" y2="700" stroke="#E3D3B5" stroke-width="14" stroke-linecap="round"/><line x1="170" y1="840" x2="854" y2="840" stroke="#E3D3B5" stroke-width="14" stroke-linecap="round"/></g><rect width="1024" height="1024" rx="228" fill="none" stroke="#000" stroke-opacity=".08" stroke-width="4"/></g></svg>