<svg xmlns="http://www.w3.org/2000/svg" width="1024" height="1024"><defs><linearGradient id="amb" x1="0" y1="0" x2="0" y2="1"><stop offset="0" stop-color="#F9B233"/><stop offset="1" stop-color="#EE8A12"/></linearGradient><linearGradient id="paper" x1="0" y1="0" x2="0" y2="1"><stop offset="0" stop-color="#FFFFFF"/><stop offset="1" stop-color="#F1EEE8"/></linearGradient><linearGradient id="dark" x1="0" y1="0" x2="0" y2="1"><stop offset="0" stop-color="#2B2A2E"/><stop offset="1" stop-color="#1C1B1E"/></linearGradient><linearGradient id="cream" x1="0" y1="0" x2="0" y2="1"><stop offset="0" stop-color="#FFF8EA"/><stop offset="1" stop-color="#F6EAD2"/></linearGradient></defs><defs>
<linearGradient id="resin" x1="0" y1="0" x2="0" y2="1"><stop offset="0" stop-color="#FFB938"/><stop offset=".55" stop-color="#F08E14"/><stop offset="1" stop-color="#C9650A"/></linearGradient>
<linearGradient id="sheet" x1="0" y1="0" x2="0" y2="1"><stop offset="0" stop-color="#FFFDF8"/><stop offset="1" stop-color="#F3EDE2"/></linearGradient>
<linearGradient id="night" x1="0" y1="0" x2="0" y2="1"><stop offset="0" stop-color="#34302C"/><stop offset="1" stop-color="#1E1B19"/></linearGradient>
<filter id="sh" x="-20%" y="-20%" width="140%" height="140%"><feDropShadow dx="0" dy="16" stdDeviation="20" flood-color="#5A2A00" flood-opacity=".32"/></filter>
</defs><defs><clipPath id="c6"><rect width="1024" height="1024" rx="228"/></clipPath></defs><g clip-path="url(#c6)"><rect width="1024" height="1024" fill="url(#cream)"/><path d="M0 0 H1024 V300 C 860 380 700 280 512 330 C 330 380 170 300 0 350 Z" fill="url(#resin)"/><g transform="translate(512 170) rotate(-32) scale(1.4)"><path d="M-70 0 C-40 -46 40 -46 70 0 C40 46 -40 46 -70 0 Z" fill="#7A3B06"/><line x1="-86" y1="0" x2="62" y2="0" stroke="#5A2A03" stroke-width="9" stroke-linecap="round"/></g><line x1="170" y1="560" x2="854" y2="560" stroke="#E3D3B5" stroke-width="14" stroke-linecap="round"/><line x1="170" y1="700" x2="854" y2="700" stroke="#E3D3B5" stroke-width="14" stroke-linecap="round"/><line x1="170" y1="840" x2="854" y2="840" stroke="#E3D3B5" stroke-width="14" stroke-linecap="round"/></g><rect width="1024" height="1024" rx="228" fill="none" stroke="#000" stroke-opacity=".08" stroke-width="4"/></svg>